<mxfile host="app.diagrams.net" modified="2021-04-12T01:45:07.655Z" agent="5.0 (Windows)" etag="mTiPb8kA-ugXlDVWF9iC" version="14.5.10" type="github">
  <diagram id="YeaQKbLMFFDkwzYKFkze" name="Page-1">
    <mxGraphModel dx="2424" dy="1987" grid="1" gridSize="10" guides="1" tooltips="1" connect="1" arrows="1" fold="1" page="1" pageScale="1" pageWidth="850" pageHeight="1100" math="0" shadow="0">
      <root>
        <mxCell id="0" />
        <mxCell id="1" parent="0" />
        <mxCell id="1hWyd5EYFZqdeXtgi5e1-46" style="edgeStyle=none;rounded=0;orthogonalLoop=1;jettySize=auto;html=1;exitX=0.25;exitY=1;exitDx=0;exitDy=0;endArrow=none;endFill=0;entryX=0;entryY=0;entryDx=0;entryDy=0;startArrow=none;" parent="1" source="1hWyd5EYFZqdeXtgi5e1-111" target="1hWyd5EYFZqdeXtgi5e1-48" edge="1">
          <mxGeometry relative="1" as="geometry">
            <mxPoint x="-118.82352941176464" y="220.00352941176465" as="targetPoint" />
          </mxGeometry>
        </mxCell>
        <mxCell id="1hWyd5EYFZqdeXtgi5e1-75" style="edgeStyle=none;rounded=0;orthogonalLoop=1;jettySize=auto;html=1;exitX=1;exitY=0.5;exitDx=0;exitDy=0;entryX=0;entryY=0.5;entryDx=0;entryDy=0;endArrow=none;endFill=0;startArrow=none;" parent="1" source="1hWyd5EYFZqdeXtgi5e1-106" target="1hWyd5EYFZqdeXtgi5e1-74" edge="1">
          <mxGeometry relative="1" as="geometry">
            <mxPoint x="-95" y="90" as="targetPoint" />
          </mxGeometry>
        </mxCell>
        <mxCell id="bRvGc7w4acEp0rGxmsy1-42" style="edgeStyle=none;rounded=0;orthogonalLoop=1;jettySize=auto;html=1;exitX=0;exitY=1;exitDx=0;exitDy=0;entryX=1;entryY=0;entryDx=0;entryDy=0;endArrow=none;endFill=0;startArrow=none;" edge="1" parent="1" source="bRvGc7w4acEp0rGxmsy1-44" target="bRvGc7w4acEp0rGxmsy1-41">
          <mxGeometry relative="1" as="geometry" />
        </mxCell>
        <mxCell id="1hWyd5EYFZqdeXtgi5e1-1" value="Sinh viên" style="whiteSpace=wrap;html=1;align=center;" parent="1" vertex="1">
          <mxGeometry x="-300" y="81.18" width="100" height="40" as="geometry" />
        </mxCell>
        <mxCell id="1hWyd5EYFZqdeXtgi5e1-11" style="edgeStyle=none;rounded=0;orthogonalLoop=1;jettySize=auto;html=1;exitX=1;exitY=1;exitDx=0;exitDy=0;entryX=0;entryY=0;entryDx=0;entryDy=0;endArrow=none;endFill=0;" parent="1" source="1hWyd5EYFZqdeXtgi5e1-2" target="1hWyd5EYFZqdeXtgi5e1-1" edge="1">
          <mxGeometry relative="1" as="geometry" />
        </mxCell>
        <mxCell id="1hWyd5EYFZqdeXtgi5e1-2" value="&lt;div&gt;Mã SV&lt;/div&gt;" style="ellipse;whiteSpace=wrap;html=1;align=center;" parent="1" vertex="1">
          <mxGeometry x="-425" y="41.18000000000001" width="100" height="40" as="geometry" />
        </mxCell>
        <mxCell id="1hWyd5EYFZqdeXtgi5e1-12" style="edgeStyle=none;rounded=0;orthogonalLoop=1;jettySize=auto;html=1;exitX=0.5;exitY=1;exitDx=0;exitDy=0;entryX=0.25;entryY=0;entryDx=0;entryDy=0;endArrow=none;endFill=0;" parent="1" source="1hWyd5EYFZqdeXtgi5e1-3" target="1hWyd5EYFZqdeXtgi5e1-1" edge="1">
          <mxGeometry relative="1" as="geometry" />
        </mxCell>
        <mxCell id="1hWyd5EYFZqdeXtgi5e1-3" value="Họ tên" style="ellipse;whiteSpace=wrap;html=1;align=center;fontStyle=0" parent="1" vertex="1">
          <mxGeometry x="-375" y="-18.82" width="100" height="40" as="geometry" />
        </mxCell>
        <mxCell id="1hWyd5EYFZqdeXtgi5e1-14" style="edgeStyle=none;rounded=0;orthogonalLoop=1;jettySize=auto;html=1;exitX=0.5;exitY=1;exitDx=0;exitDy=0;entryX=0.25;entryY=0;entryDx=0;entryDy=0;endArrow=none;endFill=0;" parent="1" source="1hWyd5EYFZqdeXtgi5e1-13" target="1hWyd5EYFZqdeXtgi5e1-1" edge="1">
          <mxGeometry relative="1" as="geometry" />
        </mxCell>
        <mxCell id="1hWyd5EYFZqdeXtgi5e1-13" value="Ngày sinh" style="ellipse;whiteSpace=wrap;html=1;align=center;" parent="1" vertex="1">
          <mxGeometry x="-265" y="-18.82" width="100" height="40" as="geometry" />
        </mxCell>
        <mxCell id="1hWyd5EYFZqdeXtgi5e1-18" style="edgeStyle=none;rounded=0;orthogonalLoop=1;jettySize=auto;html=1;exitX=0;exitY=1;exitDx=0;exitDy=0;entryX=0.5;entryY=0;entryDx=0;entryDy=0;endArrow=none;endFill=0;" parent="1" source="1hWyd5EYFZqdeXtgi5e1-17" target="1hWyd5EYFZqdeXtgi5e1-1" edge="1">
          <mxGeometry relative="1" as="geometry">
            <mxPoint x="-180.35533905932743" y="55.32213562373107" as="sourcePoint" />
          </mxGeometry>
        </mxCell>
        <mxCell id="1hWyd5EYFZqdeXtgi5e1-17" value="Địa chỉ" style="ellipse;whiteSpace=wrap;html=1;align=center;" parent="1" vertex="1">
          <mxGeometry x="-225" y="30.000000000000007" width="100" height="40" as="geometry" />
        </mxCell>
        <mxCell id="1hWyd5EYFZqdeXtgi5e1-29" style="edgeStyle=none;rounded=0;orthogonalLoop=1;jettySize=auto;html=1;exitX=1;exitY=0.75;exitDx=0;exitDy=0;entryX=0;entryY=0;entryDx=0;entryDy=0;endArrow=none;endFill=0;" parent="1" source="1hWyd5EYFZqdeXtgi5e1-19" target="1hWyd5EYFZqdeXtgi5e1-28" edge="1">
          <mxGeometry relative="1" as="geometry" />
        </mxCell>
        <mxCell id="1hWyd5EYFZqdeXtgi5e1-31" style="edgeStyle=none;rounded=0;orthogonalLoop=1;jettySize=auto;html=1;exitX=0;exitY=0.75;exitDx=0;exitDy=0;endArrow=none;endFill=0;" parent="1" source="1hWyd5EYFZqdeXtgi5e1-19" target="1hWyd5EYFZqdeXtgi5e1-30" edge="1">
          <mxGeometry relative="1" as="geometry" />
        </mxCell>
        <mxCell id="1hWyd5EYFZqdeXtgi5e1-66" style="edgeStyle=none;rounded=0;orthogonalLoop=1;jettySize=auto;html=1;exitX=0.5;exitY=1;exitDx=0;exitDy=0;endArrow=none;endFill=0;" parent="1" source="1hWyd5EYFZqdeXtgi5e1-19" target="1hWyd5EYFZqdeXtgi5e1-67" edge="1">
          <mxGeometry relative="1" as="geometry">
            <mxPoint x="550" y="220" as="targetPoint" />
          </mxGeometry>
        </mxCell>
        <mxCell id="1hWyd5EYFZqdeXtgi5e1-19" value="Giáo viên" style="whiteSpace=wrap;html=1;align=center;" parent="1" vertex="1">
          <mxGeometry x="500" y="110" width="100" height="40" as="geometry" />
        </mxCell>
        <mxCell id="1hWyd5EYFZqdeXtgi5e1-25" style="edgeStyle=none;rounded=0;orthogonalLoop=1;jettySize=auto;html=1;exitX=1;exitY=0.5;exitDx=0;exitDy=0;entryX=0;entryY=0.25;entryDx=0;entryDy=0;endArrow=none;endFill=0;" parent="1" source="1hWyd5EYFZqdeXtgi5e1-20" target="1hWyd5EYFZqdeXtgi5e1-19" edge="1">
          <mxGeometry relative="1" as="geometry" />
        </mxCell>
        <mxCell id="1hWyd5EYFZqdeXtgi5e1-20" value="&lt;div&gt;Mã GV&lt;br&gt;&lt;/div&gt;" style="ellipse;whiteSpace=wrap;html=1;align=center;fontStyle=0" parent="1" vertex="1">
          <mxGeometry x="340" y="130" width="100" height="40" as="geometry" />
        </mxCell>
        <mxCell id="1hWyd5EYFZqdeXtgi5e1-24" style="edgeStyle=none;rounded=0;orthogonalLoop=1;jettySize=auto;html=1;exitX=0.5;exitY=1;exitDx=0;exitDy=0;entryX=0.25;entryY=0;entryDx=0;entryDy=0;endArrow=none;endFill=0;" parent="1" source="1hWyd5EYFZqdeXtgi5e1-21" target="1hWyd5EYFZqdeXtgi5e1-19" edge="1">
          <mxGeometry relative="1" as="geometry" />
        </mxCell>
        <mxCell id="1hWyd5EYFZqdeXtgi5e1-21" value="Họ tên" style="ellipse;whiteSpace=wrap;html=1;align=center;" parent="1" vertex="1">
          <mxGeometry x="430" y="50" width="100" height="40" as="geometry" />
        </mxCell>
        <mxCell id="1hWyd5EYFZqdeXtgi5e1-26" style="edgeStyle=none;rounded=0;orthogonalLoop=1;jettySize=auto;html=1;exitX=0.5;exitY=1;exitDx=0;exitDy=0;entryX=0.5;entryY=0;entryDx=0;entryDy=0;endArrow=none;endFill=0;" parent="1" source="1hWyd5EYFZqdeXtgi5e1-22" target="1hWyd5EYFZqdeXtgi5e1-19" edge="1">
          <mxGeometry relative="1" as="geometry" />
        </mxCell>
        <mxCell id="1hWyd5EYFZqdeXtgi5e1-22" value="Ngày sinh" style="ellipse;whiteSpace=wrap;html=1;align=center;" parent="1" vertex="1">
          <mxGeometry x="540" y="50" width="100" height="40" as="geometry" />
        </mxCell>
        <mxCell id="1hWyd5EYFZqdeXtgi5e1-27" style="edgeStyle=none;rounded=0;orthogonalLoop=1;jettySize=auto;html=1;exitX=0;exitY=0.5;exitDx=0;exitDy=0;entryX=1;entryY=0.25;entryDx=0;entryDy=0;endArrow=none;endFill=0;" parent="1" source="1hWyd5EYFZqdeXtgi5e1-23" target="1hWyd5EYFZqdeXtgi5e1-19" edge="1">
          <mxGeometry relative="1" as="geometry" />
        </mxCell>
        <mxCell id="1hWyd5EYFZqdeXtgi5e1-23" value="Địa chỉ" style="ellipse;whiteSpace=wrap;html=1;align=center;" parent="1" vertex="1">
          <mxGeometry x="610" y="90" width="100" height="40" as="geometry" />
        </mxCell>
        <mxCell id="1hWyd5EYFZqdeXtgi5e1-28" value="Học vị" style="ellipse;whiteSpace=wrap;html=1;align=center;" parent="1" vertex="1">
          <mxGeometry x="610" y="140" width="100" height="40" as="geometry" />
        </mxCell>
        <mxCell id="1hWyd5EYFZqdeXtgi5e1-30" value="Học hàm" style="ellipse;whiteSpace=wrap;html=1;align=center;" parent="1" vertex="1">
          <mxGeometry x="440" y="170" width="100" height="40" as="geometry" />
        </mxCell>
        <mxCell id="1hWyd5EYFZqdeXtgi5e1-57" style="edgeStyle=none;rounded=0;orthogonalLoop=1;jettySize=auto;html=1;exitX=1;exitY=0.5;exitDx=0;exitDy=0;entryX=0;entryY=0.5;entryDx=0;entryDy=0;endArrow=none;endFill=0;" parent="1" source="1hWyd5EYFZqdeXtgi5e1-40" target="1hWyd5EYFZqdeXtgi5e1-55" edge="1">
          <mxGeometry relative="1" as="geometry" />
        </mxCell>
        <mxCell id="1hWyd5EYFZqdeXtgi5e1-40" value="Chương trình đào tạo" style="whiteSpace=wrap;html=1;align=center;" parent="1" vertex="1">
          <mxGeometry x="20" y="330" width="100" height="40" as="geometry" />
        </mxCell>
        <mxCell id="1hWyd5EYFZqdeXtgi5e1-41" value="&lt;div&gt;Mã SV&lt;/div&gt;" style="ellipse;whiteSpace=wrap;html=1;align=center;" parent="1" vertex="1">
          <mxGeometry x="-425" y="41.18000000000001" width="100" height="40" as="geometry" />
        </mxCell>
        <mxCell id="1hWyd5EYFZqdeXtgi5e1-45" style="edgeStyle=none;rounded=0;orthogonalLoop=1;jettySize=auto;html=1;exitX=1;exitY=0.5;exitDx=0;exitDy=0;endArrow=none;endFill=0;entryX=0;entryY=0.75;entryDx=0;entryDy=0;" parent="1" source="1hWyd5EYFZqdeXtgi5e1-42" target="1hWyd5EYFZqdeXtgi5e1-40" edge="1">
          <mxGeometry relative="1" as="geometry">
            <mxPoint x="60" y="360" as="targetPoint" />
          </mxGeometry>
        </mxCell>
        <mxCell id="1hWyd5EYFZqdeXtgi5e1-42" value="Tên CCĐT" style="ellipse;whiteSpace=wrap;html=1;align=center;fontStyle=0" parent="1" vertex="1">
          <mxGeometry x="-90" y="390" width="100" height="40" as="geometry" />
        </mxCell>
        <mxCell id="1hWyd5EYFZqdeXtgi5e1-44" style="edgeStyle=none;rounded=0;orthogonalLoop=1;jettySize=auto;html=1;exitX=1;exitY=0.5;exitDx=0;exitDy=0;entryX=0;entryY=0.5;entryDx=0;entryDy=0;endArrow=none;endFill=0;" parent="1" source="1hWyd5EYFZqdeXtgi5e1-43" target="1hWyd5EYFZqdeXtgi5e1-40" edge="1">
          <mxGeometry relative="1" as="geometry" />
        </mxCell>
        <mxCell id="1hWyd5EYFZqdeXtgi5e1-43" value="&lt;div&gt;Mã CCĐT&lt;br&gt;&lt;/div&gt;" style="ellipse;whiteSpace=wrap;html=1;align=center;" parent="1" vertex="1">
          <mxGeometry x="-150" y="330" width="100" height="40" as="geometry" />
        </mxCell>
        <mxCell id="1hWyd5EYFZqdeXtgi5e1-49" style="edgeStyle=none;rounded=0;orthogonalLoop=1;jettySize=auto;html=1;entryX=0.5;entryY=0;entryDx=0;entryDy=0;endArrow=none;endFill=0;startArrow=none;" parent="1" source="1hWyd5EYFZqdeXtgi5e1-112" target="1hWyd5EYFZqdeXtgi5e1-40" edge="1">
          <mxGeometry relative="1" as="geometry" />
        </mxCell>
        <mxCell id="1hWyd5EYFZqdeXtgi5e1-48" value="Theo" style="shape=rhombus;perimeter=rhombusPerimeter;whiteSpace=wrap;html=1;align=center;" parent="1" vertex="1">
          <mxGeometry x="-225" y="220" width="60" height="60" as="geometry" />
        </mxCell>
        <mxCell id="1hWyd5EYFZqdeXtgi5e1-78" style="edgeStyle=none;rounded=0;orthogonalLoop=1;jettySize=auto;html=1;exitX=0.75;exitY=1;exitDx=0;exitDy=0;entryX=0.5;entryY=0;entryDx=0;entryDy=0;endArrow=none;endFill=0;" parent="1" source="1hWyd5EYFZqdeXtgi5e1-50" target="1hWyd5EYFZqdeXtgi5e1-121" edge="1">
          <mxGeometry relative="1" as="geometry">
            <mxPoint x="380" y="460" as="targetPoint" />
          </mxGeometry>
        </mxCell>
        <mxCell id="1hWyd5EYFZqdeXtgi5e1-50" value="Môn học" style="whiteSpace=wrap;html=1;align=center;" parent="1" vertex="1">
          <mxGeometry x="270" y="360" width="100" height="40" as="geometry" />
        </mxCell>
        <mxCell id="1hWyd5EYFZqdeXtgi5e1-54" style="edgeStyle=none;rounded=0;orthogonalLoop=1;jettySize=auto;html=1;exitX=0.5;exitY=0;exitDx=0;exitDy=0;entryX=0.25;entryY=1;entryDx=0;entryDy=0;endArrow=none;endFill=0;" parent="1" source="1hWyd5EYFZqdeXtgi5e1-51" target="1hWyd5EYFZqdeXtgi5e1-50" edge="1">
          <mxGeometry relative="1" as="geometry" />
        </mxCell>
        <mxCell id="1hWyd5EYFZqdeXtgi5e1-51" value="Tên môn" style="ellipse;whiteSpace=wrap;html=1;align=center;fontStyle=0" parent="1" vertex="1">
          <mxGeometry x="150" y="420" width="100" height="40" as="geometry" />
        </mxCell>
        <mxCell id="1hWyd5EYFZqdeXtgi5e1-53" style="edgeStyle=none;rounded=0;orthogonalLoop=1;jettySize=auto;html=1;exitX=0.5;exitY=0;exitDx=0;exitDy=0;entryX=0;entryY=0.75;entryDx=0;entryDy=0;endArrow=none;endFill=0;" parent="1" source="1hWyd5EYFZqdeXtgi5e1-52" target="1hWyd5EYFZqdeXtgi5e1-50" edge="1">
          <mxGeometry relative="1" as="geometry" />
        </mxCell>
        <mxCell id="1hWyd5EYFZqdeXtgi5e1-52" value="&lt;div&gt;Mã môn&lt;br&gt;&lt;/div&gt;" style="ellipse;whiteSpace=wrap;html=1;align=center;" parent="1" vertex="1">
          <mxGeometry x="50" y="420" width="100" height="40" as="geometry" />
        </mxCell>
        <mxCell id="1hWyd5EYFZqdeXtgi5e1-58" style="edgeStyle=none;rounded=0;orthogonalLoop=1;jettySize=auto;html=1;exitX=1;exitY=0.5;exitDx=0;exitDy=0;entryX=0;entryY=0.5;entryDx=0;entryDy=0;endArrow=none;endFill=0;" parent="1" source="1hWyd5EYFZqdeXtgi5e1-55" target="1hWyd5EYFZqdeXtgi5e1-50" edge="1">
          <mxGeometry relative="1" as="geometry" />
        </mxCell>
        <mxCell id="1hWyd5EYFZqdeXtgi5e1-55" value="Có" style="shape=rhombus;perimeter=rhombusPerimeter;whiteSpace=wrap;html=1;align=center;" parent="1" vertex="1">
          <mxGeometry x="150" y="320" width="60" height="60" as="geometry" />
        </mxCell>
        <mxCell id="1hWyd5EYFZqdeXtgi5e1-60" style="edgeStyle=none;rounded=0;orthogonalLoop=1;jettySize=auto;html=1;exitX=0.5;exitY=0;exitDx=0;exitDy=0;entryX=0.5;entryY=1;entryDx=0;entryDy=0;endArrow=none;endFill=0;" parent="1" source="1hWyd5EYFZqdeXtgi5e1-59" target="1hWyd5EYFZqdeXtgi5e1-50" edge="1">
          <mxGeometry relative="1" as="geometry" />
        </mxCell>
        <mxCell id="1hWyd5EYFZqdeXtgi5e1-59" value="Số tín chỉ" style="ellipse;whiteSpace=wrap;html=1;align=center;fontStyle=0" parent="1" vertex="1">
          <mxGeometry x="210" y="470" width="100" height="40" as="geometry" />
        </mxCell>
        <mxCell id="1hWyd5EYFZqdeXtgi5e1-61" value="Bộ môn" style="whiteSpace=wrap;html=1;align=center;" parent="1" vertex="1">
          <mxGeometry x="500" y="340" width="100" height="40" as="geometry" />
        </mxCell>
        <mxCell id="1hWyd5EYFZqdeXtgi5e1-64" style="edgeStyle=none;rounded=0;orthogonalLoop=1;jettySize=auto;html=1;exitX=0.5;exitY=0;exitDx=0;exitDy=0;entryX=0.25;entryY=1;entryDx=0;entryDy=0;endArrow=none;endFill=0;" parent="1" source="1hWyd5EYFZqdeXtgi5e1-62" target="1hWyd5EYFZqdeXtgi5e1-61" edge="1">
          <mxGeometry relative="1" as="geometry" />
        </mxCell>
        <mxCell id="1hWyd5EYFZqdeXtgi5e1-62" value="&lt;div&gt;Mã BM&lt;br&gt;&lt;/div&gt;" style="ellipse;whiteSpace=wrap;html=1;align=center;fontStyle=0" parent="1" vertex="1">
          <mxGeometry x="460" y="460" width="100" height="40" as="geometry" />
        </mxCell>
        <mxCell id="1hWyd5EYFZqdeXtgi5e1-65" style="edgeStyle=none;rounded=0;orthogonalLoop=1;jettySize=auto;html=1;exitX=0.5;exitY=0;exitDx=0;exitDy=0;entryX=0.5;entryY=1;entryDx=0;entryDy=0;endArrow=none;endFill=0;" parent="1" source="1hWyd5EYFZqdeXtgi5e1-63" target="1hWyd5EYFZqdeXtgi5e1-61" edge="1">
          <mxGeometry relative="1" as="geometry" />
        </mxCell>
        <mxCell id="1hWyd5EYFZqdeXtgi5e1-63" value="Tên BM" style="ellipse;whiteSpace=wrap;html=1;align=center;" parent="1" vertex="1">
          <mxGeometry x="600" y="460" width="100" height="40" as="geometry" />
        </mxCell>
        <mxCell id="1hWyd5EYFZqdeXtgi5e1-68" style="edgeStyle=none;rounded=0;orthogonalLoop=1;jettySize=auto;html=1;exitX=0.5;exitY=1;exitDx=0;exitDy=0;entryX=0.5;entryY=0;entryDx=0;entryDy=0;endArrow=none;endFill=0;" parent="1" source="1hWyd5EYFZqdeXtgi5e1-67" target="1hWyd5EYFZqdeXtgi5e1-61" edge="1">
          <mxGeometry relative="1" as="geometry" />
        </mxCell>
        <mxCell id="1hWyd5EYFZqdeXtgi5e1-67" value="Thuộc" style="shape=rhombus;perimeter=rhombusPerimeter;whiteSpace=wrap;html=1;align=center;" parent="1" vertex="1">
          <mxGeometry x="535" y="200" width="50" height="50" as="geometry" />
        </mxCell>
        <mxCell id="1hWyd5EYFZqdeXtgi5e1-71" style="edgeStyle=none;rounded=0;orthogonalLoop=1;jettySize=auto;html=1;exitX=0;exitY=0.5;exitDx=0;exitDy=0;entryX=1;entryY=0.5;entryDx=0;entryDy=0;endArrow=none;endFill=0;" parent="1" source="1hWyd5EYFZqdeXtgi5e1-69" target="1hWyd5EYFZqdeXtgi5e1-50" edge="1">
          <mxGeometry relative="1" as="geometry" />
        </mxCell>
        <mxCell id="1hWyd5EYFZqdeXtgi5e1-72" style="edgeStyle=none;rounded=0;orthogonalLoop=1;jettySize=auto;html=1;exitX=1;exitY=0.5;exitDx=0;exitDy=0;entryX=0;entryY=0.5;entryDx=0;entryDy=0;endArrow=none;endFill=0;" parent="1" source="1hWyd5EYFZqdeXtgi5e1-69" target="1hWyd5EYFZqdeXtgi5e1-61" edge="1">
          <mxGeometry relative="1" as="geometry" />
        </mxCell>
        <mxCell id="1hWyd5EYFZqdeXtgi5e1-69" value="Thuộc" style="shape=rhombus;perimeter=rhombusPerimeter;whiteSpace=wrap;html=1;align=center;" parent="1" vertex="1">
          <mxGeometry x="410" y="355" width="50" height="50" as="geometry" />
        </mxCell>
        <mxCell id="1hWyd5EYFZqdeXtgi5e1-101" style="edgeStyle=none;rounded=0;orthogonalLoop=1;jettySize=auto;html=1;exitX=1;exitY=0.75;exitDx=0;exitDy=0;entryX=0;entryY=0.5;entryDx=0;entryDy=0;endArrow=none;endFill=0;" parent="1" source="1hWyd5EYFZqdeXtgi5e1-73" target="1hWyd5EYFZqdeXtgi5e1-100" edge="1">
          <mxGeometry relative="1" as="geometry" />
        </mxCell>
        <mxCell id="1hWyd5EYFZqdeXtgi5e1-104" style="edgeStyle=none;rounded=0;orthogonalLoop=1;jettySize=auto;html=1;exitX=0.5;exitY=1;exitDx=0;exitDy=0;entryX=0;entryY=0;entryDx=0;entryDy=0;endArrow=none;endFill=0;" parent="1" source="1hWyd5EYFZqdeXtgi5e1-73" target="1hWyd5EYFZqdeXtgi5e1-103" edge="1">
          <mxGeometry relative="1" as="geometry" />
        </mxCell>
        <mxCell id="1hWyd5EYFZqdeXtgi5e1-130" style="edgeStyle=none;rounded=0;orthogonalLoop=1;jettySize=auto;html=1;exitX=0.5;exitY=0;exitDx=0;exitDy=0;entryX=0.5;entryY=1;entryDx=0;entryDy=0;endArrow=none;endFill=0;" parent="1" source="1hWyd5EYFZqdeXtgi5e1-73" target="1hWyd5EYFZqdeXtgi5e1-129" edge="1">
          <mxGeometry relative="1" as="geometry" />
        </mxCell>
        <mxCell id="1hWyd5EYFZqdeXtgi5e1-134" style="edgeStyle=none;rounded=0;orthogonalLoop=1;jettySize=auto;html=1;exitX=1;exitY=0;exitDx=0;exitDy=0;entryX=0;entryY=1;entryDx=0;entryDy=0;endArrow=none;endFill=0;" parent="1" source="1hWyd5EYFZqdeXtgi5e1-73" target="1hWyd5EYFZqdeXtgi5e1-133" edge="1">
          <mxGeometry relative="1" as="geometry" />
        </mxCell>
        <mxCell id="1hWyd5EYFZqdeXtgi5e1-73" value="Lớp môn học" style="whiteSpace=wrap;html=1;align=center;" parent="1" vertex="1">
          <mxGeometry x="130" y="50" width="100" height="40" as="geometry" />
        </mxCell>
        <mxCell id="1hWyd5EYFZqdeXtgi5e1-76" style="edgeStyle=none;rounded=0;orthogonalLoop=1;jettySize=auto;html=1;exitX=1;exitY=0.5;exitDx=0;exitDy=0;entryX=0;entryY=0.75;entryDx=0;entryDy=0;endArrow=none;endFill=0;startArrow=none;" parent="1" source="1hWyd5EYFZqdeXtgi5e1-107" target="1hWyd5EYFZqdeXtgi5e1-73" edge="1">
          <mxGeometry relative="1" as="geometry" />
        </mxCell>
        <mxCell id="1hWyd5EYFZqdeXtgi5e1-74" value="Tham gia" style="shape=rhombus;perimeter=rhombusPerimeter;whiteSpace=wrap;html=1;align=center;" parent="1" vertex="1">
          <mxGeometry x="-90" y="80" width="60" height="60" as="geometry" />
        </mxCell>
        <mxCell id="1hWyd5EYFZqdeXtgi5e1-83" style="edgeStyle=none;rounded=0;orthogonalLoop=1;jettySize=auto;html=1;exitX=0.5;exitY=1;exitDx=0;exitDy=0;entryX=0.25;entryY=0;entryDx=0;entryDy=0;endArrow=none;endFill=0;" parent="1" source="1hWyd5EYFZqdeXtgi5e1-81" target="1hWyd5EYFZqdeXtgi5e1-73" edge="1">
          <mxGeometry relative="1" as="geometry" />
        </mxCell>
        <mxCell id="1hWyd5EYFZqdeXtgi5e1-81" value="Sĩ số tối đa" style="ellipse;whiteSpace=wrap;html=1;align=center;fontStyle=0" parent="1" vertex="1">
          <mxGeometry x="20" y="-18.82" width="100" height="40" as="geometry" />
        </mxCell>
        <mxCell id="1hWyd5EYFZqdeXtgi5e1-84" style="edgeStyle=none;rounded=0;orthogonalLoop=1;jettySize=auto;html=1;exitX=1;exitY=1;exitDx=0;exitDy=0;entryX=0;entryY=0.25;entryDx=0;entryDy=0;endArrow=none;endFill=0;" parent="1" source="1hWyd5EYFZqdeXtgi5e1-82" target="1hWyd5EYFZqdeXtgi5e1-73" edge="1">
          <mxGeometry relative="1" as="geometry" />
        </mxCell>
        <mxCell id="1hWyd5EYFZqdeXtgi5e1-82" value="&lt;div&gt;Mã lớp môn học&lt;br&gt;&lt;/div&gt;" style="ellipse;whiteSpace=wrap;html=1;align=center;" parent="1" vertex="1">
          <mxGeometry y="30" width="100" height="40" as="geometry" />
        </mxCell>
        <mxCell id="1hWyd5EYFZqdeXtgi5e1-102" style="edgeStyle=none;rounded=0;orthogonalLoop=1;jettySize=auto;html=1;exitX=1;exitY=0.5;exitDx=0;exitDy=0;entryX=0;entryY=0;entryDx=0;entryDy=0;endArrow=none;endFill=0;" parent="1" source="1hWyd5EYFZqdeXtgi5e1-100" target="1hWyd5EYFZqdeXtgi5e1-19" edge="1">
          <mxGeometry relative="1" as="geometry" />
        </mxCell>
        <mxCell id="1hWyd5EYFZqdeXtgi5e1-100" value="Có" style="shape=rhombus;perimeter=rhombusPerimeter;whiteSpace=wrap;html=1;align=center;" parent="1" vertex="1">
          <mxGeometry x="300" y="50" width="60" height="60" as="geometry" />
        </mxCell>
        <mxCell id="1hWyd5EYFZqdeXtgi5e1-105" style="edgeStyle=none;rounded=0;orthogonalLoop=1;jettySize=auto;html=1;exitX=1;exitY=1;exitDx=0;exitDy=0;entryX=0.5;entryY=0;entryDx=0;entryDy=0;endArrow=none;endFill=0;" parent="1" source="1hWyd5EYFZqdeXtgi5e1-103" target="1hWyd5EYFZqdeXtgi5e1-50" edge="1">
          <mxGeometry relative="1" as="geometry" />
        </mxCell>
        <mxCell id="1hWyd5EYFZqdeXtgi5e1-103" value="Dạy" style="shape=rhombus;perimeter=rhombusPerimeter;whiteSpace=wrap;html=1;align=center;" parent="1" vertex="1">
          <mxGeometry x="240" y="230" width="60" height="60" as="geometry" />
        </mxCell>
        <mxCell id="1hWyd5EYFZqdeXtgi5e1-109" value="n" style="text;html=1;align=center;verticalAlign=middle;resizable=0;points=[];autosize=1;strokeColor=none;" parent="1" vertex="1">
          <mxGeometry x="270" y="61.18" width="20" height="20" as="geometry" />
        </mxCell>
        <mxCell id="1hWyd5EYFZqdeXtgi5e1-110" value="n" style="text;html=1;align=center;verticalAlign=middle;resizable=0;points=[];autosize=1;strokeColor=none;" parent="1" vertex="1">
          <mxGeometry x="380" y="60" width="20" height="20" as="geometry" />
        </mxCell>
        <mxCell id="1hWyd5EYFZqdeXtgi5e1-113" value="n" style="text;html=1;align=center;verticalAlign=middle;resizable=0;points=[];autosize=1;strokeColor=none;" parent="1" vertex="1">
          <mxGeometry x="130" y="320" width="20" height="20" as="geometry" />
        </mxCell>
        <mxCell id="1hWyd5EYFZqdeXtgi5e1-114" value="n" style="text;html=1;align=center;verticalAlign=middle;resizable=0;points=[];autosize=1;strokeColor=none;" parent="1" vertex="1">
          <mxGeometry x="240" y="340" width="20" height="20" as="geometry" />
        </mxCell>
        <mxCell id="1hWyd5EYFZqdeXtgi5e1-115" value="n" style="text;html=1;align=center;verticalAlign=middle;resizable=0;points=[];autosize=1;strokeColor=none;" parent="1" vertex="1">
          <mxGeometry x="380" y="350" width="20" height="20" as="geometry" />
        </mxCell>
        <mxCell id="1hWyd5EYFZqdeXtgi5e1-116" value="1" style="text;html=1;align=center;verticalAlign=middle;resizable=0;points=[];autosize=1;strokeColor=none;" parent="1" vertex="1">
          <mxGeometry x="470" y="350" width="20" height="20" as="geometry" />
        </mxCell>
        <mxCell id="1hWyd5EYFZqdeXtgi5e1-117" value="n" style="text;html=1;align=center;verticalAlign=middle;resizable=0;points=[];autosize=1;strokeColor=none;" parent="1" vertex="1">
          <mxGeometry x="200" y="101.18" width="20" height="20" as="geometry" />
        </mxCell>
        <mxCell id="1hWyd5EYFZqdeXtgi5e1-118" value="1" style="text;html=1;align=center;verticalAlign=middle;resizable=0;points=[];autosize=1;strokeColor=none;" parent="1" vertex="1">
          <mxGeometry x="320" y="330" width="20" height="20" as="geometry" />
        </mxCell>
        <mxCell id="1hWyd5EYFZqdeXtgi5e1-119" value="n" style="text;html=1;align=center;verticalAlign=middle;resizable=0;points=[];autosize=1;strokeColor=none;" parent="1" vertex="1">
          <mxGeometry x="550" y="151.18" width="20" height="20" as="geometry" />
        </mxCell>
        <mxCell id="1hWyd5EYFZqdeXtgi5e1-120" value="1" style="text;html=1;align=center;verticalAlign=middle;resizable=0;points=[];autosize=1;strokeColor=none;" parent="1" vertex="1">
          <mxGeometry x="565" y="300" width="20" height="20" as="geometry" />
        </mxCell>
        <mxCell id="1hWyd5EYFZqdeXtgi5e1-121" value="Môn tiên quyết" style="ellipse;shape=doubleEllipse;margin=3;whiteSpace=wrap;html=1;align=center;" parent="1" vertex="1">
          <mxGeometry x="320" y="440" width="100" height="40" as="geometry" />
        </mxCell>
        <mxCell id="1hWyd5EYFZqdeXtgi5e1-129" value="Năm học" style="ellipse;whiteSpace=wrap;html=1;align=center;fontStyle=0" parent="1" vertex="1">
          <mxGeometry x="130" y="-20" width="100" height="40" as="geometry" />
        </mxCell>
        <mxCell id="1hWyd5EYFZqdeXtgi5e1-132" value="Học kỳ" style="whiteSpace=wrap;html=1;align=center;" parent="1" vertex="1">
          <mxGeometry x="310" y="-80" width="100" height="40" as="geometry" />
        </mxCell>
        <mxCell id="1hWyd5EYFZqdeXtgi5e1-135" style="edgeStyle=none;rounded=0;orthogonalLoop=1;jettySize=auto;html=1;exitX=1;exitY=0;exitDx=0;exitDy=0;entryX=0;entryY=1;entryDx=0;entryDy=0;endArrow=none;endFill=0;" parent="1" source="1hWyd5EYFZqdeXtgi5e1-133" target="1hWyd5EYFZqdeXtgi5e1-132" edge="1">
          <mxGeometry relative="1" as="geometry" />
        </mxCell>
        <mxCell id="1hWyd5EYFZqdeXtgi5e1-133" value="Có" style="shape=rhombus;perimeter=rhombusPerimeter;whiteSpace=wrap;html=1;align=center;" parent="1" vertex="1">
          <mxGeometry x="240" y="-20" width="60" height="60" as="geometry" />
        </mxCell>
        <mxCell id="1hWyd5EYFZqdeXtgi5e1-136" value="n" style="text;html=1;align=center;verticalAlign=middle;resizable=0;points=[];autosize=1;strokeColor=none;" parent="1" vertex="1">
          <mxGeometry x="220" y="21.180000000000007" width="20" height="20" as="geometry" />
        </mxCell>
        <mxCell id="1hWyd5EYFZqdeXtgi5e1-137" value="1" style="text;html=1;align=center;verticalAlign=middle;resizable=0;points=[];autosize=1;strokeColor=none;" parent="1" vertex="1">
          <mxGeometry x="280" y="-40" width="20" height="20" as="geometry" />
        </mxCell>
        <mxCell id="1hWyd5EYFZqdeXtgi5e1-140" style="edgeStyle=none;rounded=0;orthogonalLoop=1;jettySize=auto;html=1;exitX=0.5;exitY=1;exitDx=0;exitDy=0;entryX=0.33;entryY=0.05;entryDx=0;entryDy=0;entryPerimeter=0;endArrow=none;endFill=0;" parent="1" source="1hWyd5EYFZqdeXtgi5e1-138" target="1hWyd5EYFZqdeXtgi5e1-132" edge="1">
          <mxGeometry relative="1" as="geometry" />
        </mxCell>
        <mxCell id="1hWyd5EYFZqdeXtgi5e1-138" value="Mã HK" style="ellipse;whiteSpace=wrap;html=1;align=center;" parent="1" vertex="1">
          <mxGeometry x="250" y="-160" width="100" height="40" as="geometry" />
        </mxCell>
        <mxCell id="1hWyd5EYFZqdeXtgi5e1-141" style="edgeStyle=none;rounded=0;orthogonalLoop=1;jettySize=auto;html=1;exitX=0.5;exitY=1;exitDx=0;exitDy=0;entryX=0.5;entryY=0;entryDx=0;entryDy=0;endArrow=none;endFill=0;" parent="1" source="1hWyd5EYFZqdeXtgi5e1-139" target="1hWyd5EYFZqdeXtgi5e1-132" edge="1">
          <mxGeometry relative="1" as="geometry" />
        </mxCell>
        <mxCell id="1hWyd5EYFZqdeXtgi5e1-139" value="Tên HK" style="ellipse;whiteSpace=wrap;html=1;align=center;" parent="1" vertex="1">
          <mxGeometry x="370" y="-150" width="100" height="40" as="geometry" />
        </mxCell>
        <mxCell id="bRvGc7w4acEp0rGxmsy1-13" style="edgeStyle=orthogonalEdgeStyle;rounded=0;orthogonalLoop=1;jettySize=auto;html=1;exitX=0.5;exitY=1;exitDx=0;exitDy=0;entryX=0.5;entryY=0;entryDx=0;entryDy=0;endArrow=none;endFill=0;" edge="1" parent="1" source="bRvGc7w4acEp0rGxmsy1-7" target="1hWyd5EYFZqdeXtgi5e1-74">
          <mxGeometry relative="1" as="geometry" />
        </mxCell>
        <mxCell id="bRvGc7w4acEp0rGxmsy1-7" value="Danh sách lớp" style="ellipse;whiteSpace=wrap;html=1;" vertex="1" parent="1">
          <mxGeometry x="-95" y="11.18" width="70" height="50" as="geometry" />
        </mxCell>
        <mxCell id="1hWyd5EYFZqdeXtgi5e1-107" value="n" style="text;html=1;align=center;verticalAlign=middle;resizable=0;points=[];autosize=1;strokeColor=none;" parent="1" vertex="1">
          <mxGeometry x="60" y="81.18" width="20" height="20" as="geometry" />
        </mxCell>
        <mxCell id="bRvGc7w4acEp0rGxmsy1-9" value="" style="edgeStyle=none;rounded=0;orthogonalLoop=1;jettySize=auto;html=1;exitX=1;exitY=0.5;exitDx=0;exitDy=0;entryX=0;entryY=0.75;entryDx=0;entryDy=0;endArrow=none;endFill=0;" edge="1" parent="1" source="1hWyd5EYFZqdeXtgi5e1-74" target="1hWyd5EYFZqdeXtgi5e1-107">
          <mxGeometry relative="1" as="geometry">
            <mxPoint x="-30" y="110" as="sourcePoint" />
            <mxPoint x="130" y="80" as="targetPoint" />
          </mxGeometry>
        </mxCell>
        <mxCell id="1hWyd5EYFZqdeXtgi5e1-106" value="n" style="text;html=1;align=center;verticalAlign=middle;resizable=0;points=[];autosize=1;strokeColor=none;" parent="1" vertex="1">
          <mxGeometry x="-150" y="91.18" width="20" height="20" as="geometry" />
        </mxCell>
        <mxCell id="bRvGc7w4acEp0rGxmsy1-10" value="" style="edgeStyle=none;rounded=0;orthogonalLoop=1;jettySize=auto;html=1;exitX=1;exitY=0.5;exitDx=0;exitDy=0;entryX=0;entryY=0.5;entryDx=0;entryDy=0;endArrow=none;endFill=0;" edge="1" parent="1" source="1hWyd5EYFZqdeXtgi5e1-1" target="1hWyd5EYFZqdeXtgi5e1-106">
          <mxGeometry relative="1" as="geometry">
            <mxPoint x="-185" y="101.18000000000006" as="sourcePoint" />
            <mxPoint x="-90" y="110" as="targetPoint" />
          </mxGeometry>
        </mxCell>
        <mxCell id="1hWyd5EYFZqdeXtgi5e1-111" value="n" style="text;html=1;align=center;verticalAlign=middle;resizable=0;points=[];autosize=1;strokeColor=none;" parent="1" vertex="1">
          <mxGeometry x="-260" y="151.18" width="20" height="20" as="geometry" />
        </mxCell>
        <mxCell id="bRvGc7w4acEp0rGxmsy1-11" value="" style="edgeStyle=none;rounded=0;orthogonalLoop=1;jettySize=auto;html=1;exitX=0.25;exitY=1;exitDx=0;exitDy=0;endArrow=none;endFill=0;entryX=0;entryY=0;entryDx=0;entryDy=0;" edge="1" parent="1" source="1hWyd5EYFZqdeXtgi5e1-1" target="1hWyd5EYFZqdeXtgi5e1-111">
          <mxGeometry relative="1" as="geometry">
            <mxPoint x="-155" y="255" as="targetPoint" />
            <mxPoint x="-260" y="121.18000000000006" as="sourcePoint" />
          </mxGeometry>
        </mxCell>
        <mxCell id="1hWyd5EYFZqdeXtgi5e1-112" value="1" style="text;html=1;align=center;verticalAlign=middle;resizable=0;points=[];autosize=1;strokeColor=none;" parent="1" vertex="1">
          <mxGeometry x="-90" y="290" width="20" height="20" as="geometry" />
        </mxCell>
        <mxCell id="bRvGc7w4acEp0rGxmsy1-12" value="" style="edgeStyle=none;rounded=0;orthogonalLoop=1;jettySize=auto;html=1;exitX=1;exitY=1;exitDx=0;exitDy=0;entryX=0.5;entryY=0;entryDx=0;entryDy=0;endArrow=none;endFill=0;" edge="1" parent="1" source="1hWyd5EYFZqdeXtgi5e1-48" target="1hWyd5EYFZqdeXtgi5e1-112">
          <mxGeometry relative="1" as="geometry">
            <mxPoint x="-155" y="285" as="sourcePoint" />
            <mxPoint x="70" y="330" as="targetPoint" />
          </mxGeometry>
        </mxCell>
        <mxCell id="bRvGc7w4acEp0rGxmsy1-29" style="edgeStyle=none;rounded=0;orthogonalLoop=1;jettySize=auto;html=1;exitX=0.75;exitY=0;exitDx=0;exitDy=0;entryX=0;entryY=1;entryDx=0;entryDy=0;endArrow=none;endFill=0;startArrow=none;" edge="1" parent="1" source="bRvGc7w4acEp0rGxmsy1-31" target="bRvGc7w4acEp0rGxmsy1-28">
          <mxGeometry relative="1" as="geometry" />
        </mxCell>
        <mxCell id="bRvGc7w4acEp0rGxmsy1-14" value="&lt;div&gt;Bảng điểm&lt;/div&gt;" style="whiteSpace=wrap;html=1;align=center;" vertex="1" parent="1">
          <mxGeometry x="-30" y="180" width="100" height="40" as="geometry" />
        </mxCell>
        <mxCell id="bRvGc7w4acEp0rGxmsy1-20" style="edgeStyle=none;rounded=0;orthogonalLoop=1;jettySize=auto;html=1;exitX=1;exitY=0.5;exitDx=0;exitDy=0;entryX=0;entryY=0.5;entryDx=0;entryDy=0;endArrow=none;endFill=0;" edge="1" parent="1" source="bRvGc7w4acEp0rGxmsy1-15" target="bRvGc7w4acEp0rGxmsy1-14">
          <mxGeometry relative="1" as="geometry" />
        </mxCell>
        <mxCell id="bRvGc7w4acEp0rGxmsy1-15" value="Điểm CC" style="ellipse;whiteSpace=wrap;html=1;align=center;fontStyle=0" vertex="1" parent="1">
          <mxGeometry x="-160" y="205" width="100" height="40" as="geometry" />
        </mxCell>
        <mxCell id="bRvGc7w4acEp0rGxmsy1-19" style="rounded=0;orthogonalLoop=1;jettySize=auto;html=1;exitX=0.5;exitY=0;exitDx=0;exitDy=0;entryX=0.5;entryY=1;entryDx=0;entryDy=0;endArrow=none;endFill=0;" edge="1" parent="1" source="bRvGc7w4acEp0rGxmsy1-16" target="bRvGc7w4acEp0rGxmsy1-14">
          <mxGeometry relative="1" as="geometry" />
        </mxCell>
        <mxCell id="bRvGc7w4acEp0rGxmsy1-16" value="Điểm TX" style="ellipse;whiteSpace=wrap;html=1;align=center;fontStyle=0" vertex="1" parent="1">
          <mxGeometry x="-80" y="240" width="100" height="40" as="geometry" />
        </mxCell>
        <mxCell id="bRvGc7w4acEp0rGxmsy1-18" style="rounded=0;orthogonalLoop=1;jettySize=auto;html=1;exitX=0.5;exitY=0;exitDx=0;exitDy=0;entryX=0.75;entryY=1;entryDx=0;entryDy=0;endArrow=none;endFill=0;" edge="1" parent="1" source="bRvGc7w4acEp0rGxmsy1-17" target="bRvGc7w4acEp0rGxmsy1-14">
          <mxGeometry relative="1" as="geometry" />
        </mxCell>
        <mxCell id="bRvGc7w4acEp0rGxmsy1-17" value="Điểm Thi" style="ellipse;whiteSpace=wrap;html=1;align=center;fontStyle=0" vertex="1" parent="1">
          <mxGeometry x="20" y="250" width="100" height="40" as="geometry" />
        </mxCell>
        <mxCell id="bRvGc7w4acEp0rGxmsy1-22" style="edgeStyle=none;rounded=0;orthogonalLoop=1;jettySize=auto;html=1;exitX=1;exitY=1;exitDx=0;exitDy=0;entryX=0;entryY=0;entryDx=0;entryDy=0;endArrow=none;endFill=0;startArrow=none;" edge="1" parent="1" source="bRvGc7w4acEp0rGxmsy1-26" target="bRvGc7w4acEp0rGxmsy1-14">
          <mxGeometry relative="1" as="geometry" />
        </mxCell>
        <mxCell id="bRvGc7w4acEp0rGxmsy1-23" style="edgeStyle=none;rounded=0;orthogonalLoop=1;jettySize=auto;html=1;exitX=0;exitY=0;exitDx=0;exitDy=0;entryX=1;entryY=1;entryDx=0;entryDy=0;endArrow=none;endFill=0;startArrow=none;" edge="1" parent="1" source="bRvGc7w4acEp0rGxmsy1-24" target="1hWyd5EYFZqdeXtgi5e1-1">
          <mxGeometry relative="1" as="geometry" />
        </mxCell>
        <mxCell id="bRvGc7w4acEp0rGxmsy1-21" value="Có" style="shape=rhombus;perimeter=rhombusPerimeter;whiteSpace=wrap;html=1;align=center;" vertex="1" parent="1">
          <mxGeometry x="-140" y="121.18" width="60" height="60" as="geometry" />
        </mxCell>
        <mxCell id="bRvGc7w4acEp0rGxmsy1-24" value="1" style="text;html=1;align=center;verticalAlign=middle;resizable=0;points=[];autosize=1;strokeColor=none;" vertex="1" parent="1">
          <mxGeometry x="-180" y="130" width="20" height="20" as="geometry" />
        </mxCell>
        <mxCell id="bRvGc7w4acEp0rGxmsy1-25" value="" style="edgeStyle=none;rounded=0;orthogonalLoop=1;jettySize=auto;html=1;exitX=0;exitY=0.5;exitDx=0;exitDy=0;entryX=1;entryY=1;entryDx=0;entryDy=0;endArrow=none;endFill=0;" edge="1" parent="1" source="bRvGc7w4acEp0rGxmsy1-21" target="bRvGc7w4acEp0rGxmsy1-24">
          <mxGeometry relative="1" as="geometry">
            <mxPoint x="-125" y="136.18000000000006" as="sourcePoint" />
            <mxPoint x="-185" y="121.18000000000006" as="targetPoint" />
          </mxGeometry>
        </mxCell>
        <mxCell id="bRvGc7w4acEp0rGxmsy1-26" value="n" style="text;html=1;align=center;verticalAlign=middle;resizable=0;points=[];autosize=1;strokeColor=none;" vertex="1" parent="1">
          <mxGeometry x="-60" y="151.18" width="20" height="20" as="geometry" />
        </mxCell>
        <mxCell id="bRvGc7w4acEp0rGxmsy1-27" value="" style="edgeStyle=none;rounded=0;orthogonalLoop=1;jettySize=auto;html=1;exitX=1;exitY=0.5;exitDx=0;exitDy=0;entryX=0.05;entryY=0.7;entryDx=0;entryDy=0;endArrow=none;endFill=0;entryPerimeter=0;" edge="1" parent="1" source="bRvGc7w4acEp0rGxmsy1-21" target="bRvGc7w4acEp0rGxmsy1-26">
          <mxGeometry relative="1" as="geometry">
            <mxPoint x="-95" y="166.18000000000006" as="sourcePoint" />
            <mxPoint x="-40" y="180" as="targetPoint" />
          </mxGeometry>
        </mxCell>
        <mxCell id="bRvGc7w4acEp0rGxmsy1-30" style="edgeStyle=none;rounded=0;orthogonalLoop=1;jettySize=auto;html=1;exitX=1;exitY=0;exitDx=0;exitDy=0;entryX=0.25;entryY=1;entryDx=0;entryDy=0;endArrow=none;endFill=0;startArrow=none;" edge="1" parent="1" source="bRvGc7w4acEp0rGxmsy1-34" target="1hWyd5EYFZqdeXtgi5e1-73">
          <mxGeometry relative="1" as="geometry" />
        </mxCell>
        <mxCell id="bRvGc7w4acEp0rGxmsy1-28" value="Thuộc" style="shape=rhombus;perimeter=rhombusPerimeter;whiteSpace=wrap;html=1;align=center;" vertex="1" parent="1">
          <mxGeometry x="100" y="131.18" width="60" height="60" as="geometry" />
        </mxCell>
        <mxCell id="bRvGc7w4acEp0rGxmsy1-31" value="n" style="text;html=1;align=center;verticalAlign=middle;resizable=0;points=[];autosize=1;strokeColor=none;" vertex="1" parent="1">
          <mxGeometry x="60" y="150" width="20" height="20" as="geometry" />
        </mxCell>
        <mxCell id="bRvGc7w4acEp0rGxmsy1-32" value="" style="edgeStyle=none;rounded=0;orthogonalLoop=1;jettySize=auto;html=1;exitX=0.75;exitY=0;exitDx=0;exitDy=0;entryX=0;entryY=1;entryDx=0;entryDy=0;endArrow=none;endFill=0;" edge="1" parent="1" source="bRvGc7w4acEp0rGxmsy1-14" target="bRvGc7w4acEp0rGxmsy1-31">
          <mxGeometry relative="1" as="geometry">
            <mxPoint x="45" y="180" as="sourcePoint" />
            <mxPoint x="105" y="156.18000000000006" as="targetPoint" />
          </mxGeometry>
        </mxCell>
        <mxCell id="bRvGc7w4acEp0rGxmsy1-34" value="1" style="text;html=1;align=center;verticalAlign=middle;resizable=0;points=[];autosize=1;strokeColor=none;" vertex="1" parent="1">
          <mxGeometry x="140" y="101.18" width="20" height="20" as="geometry" />
        </mxCell>
        <mxCell id="bRvGc7w4acEp0rGxmsy1-35" value="" style="edgeStyle=none;rounded=0;orthogonalLoop=1;jettySize=auto;html=1;exitX=1;exitY=0;exitDx=0;exitDy=0;entryX=0.25;entryY=1;entryDx=0;entryDy=0;endArrow=none;endFill=0;" edge="1" parent="1" source="bRvGc7w4acEp0rGxmsy1-28" target="bRvGc7w4acEp0rGxmsy1-34">
          <mxGeometry relative="1" as="geometry">
            <mxPoint x="145" y="146.18000000000006" as="sourcePoint" />
            <mxPoint x="155" y="90" as="targetPoint" />
          </mxGeometry>
        </mxCell>
        <mxCell id="bRvGc7w4acEp0rGxmsy1-43" style="edgeStyle=none;rounded=0;orthogonalLoop=1;jettySize=auto;html=1;exitX=0.5;exitY=0;exitDx=0;exitDy=0;entryX=0;entryY=1;entryDx=0;entryDy=0;endArrow=none;endFill=0;startArrow=none;" edge="1" parent="1" source="bRvGc7w4acEp0rGxmsy1-46" target="bRvGc7w4acEp0rGxmsy1-41">
          <mxGeometry relative="1" as="geometry" />
        </mxCell>
        <mxCell id="bRvGc7w4acEp0rGxmsy1-36" value="Lớp quản lý" style="whiteSpace=wrap;html=1;align=center;" vertex="1" parent="1">
          <mxGeometry x="-425" y="250" width="100" height="40" as="geometry" />
        </mxCell>
        <mxCell id="bRvGc7w4acEp0rGxmsy1-38" style="edgeStyle=none;rounded=0;orthogonalLoop=1;jettySize=auto;html=1;exitX=1;exitY=0.5;exitDx=0;exitDy=0;entryX=0;entryY=0.5;entryDx=0;entryDy=0;endArrow=none;endFill=0;" edge="1" parent="1" source="bRvGc7w4acEp0rGxmsy1-37" target="bRvGc7w4acEp0rGxmsy1-36">
          <mxGeometry relative="1" as="geometry" />
        </mxCell>
        <mxCell id="bRvGc7w4acEp0rGxmsy1-37" value="Mã lớp" style="ellipse;whiteSpace=wrap;html=1;align=center;" vertex="1" parent="1">
          <mxGeometry x="-560" y="191.18" width="100" height="40" as="geometry" />
        </mxCell>
        <mxCell id="bRvGc7w4acEp0rGxmsy1-40" style="edgeStyle=none;rounded=0;orthogonalLoop=1;jettySize=auto;html=1;exitX=1;exitY=0.5;exitDx=0;exitDy=0;entryX=0;entryY=0.5;entryDx=0;entryDy=0;endArrow=none;endFill=0;" edge="1" parent="1" source="bRvGc7w4acEp0rGxmsy1-39" target="bRvGc7w4acEp0rGxmsy1-36">
          <mxGeometry relative="1" as="geometry" />
        </mxCell>
        <mxCell id="bRvGc7w4acEp0rGxmsy1-39" value="Tên lớp" style="ellipse;whiteSpace=wrap;html=1;align=center;" vertex="1" parent="1">
          <mxGeometry x="-570" y="250" width="100" height="40" as="geometry" />
        </mxCell>
        <mxCell id="bRvGc7w4acEp0rGxmsy1-41" value="Theo" style="shape=rhombus;perimeter=rhombusPerimeter;whiteSpace=wrap;html=1;align=center;" vertex="1" parent="1">
          <mxGeometry x="-360" y="160" width="60" height="60" as="geometry" />
        </mxCell>
        <mxCell id="bRvGc7w4acEp0rGxmsy1-44" value="n" style="text;html=1;align=center;verticalAlign=middle;resizable=0;points=[];autosize=1;strokeColor=none;" vertex="1" parent="1">
          <mxGeometry x="-320" y="140" width="20" height="20" as="geometry" />
        </mxCell>
        <mxCell id="bRvGc7w4acEp0rGxmsy1-45" value="" style="edgeStyle=none;rounded=0;orthogonalLoop=1;jettySize=auto;html=1;exitX=0;exitY=1;exitDx=0;exitDy=0;entryX=1;entryY=0;entryDx=0;entryDy=0;endArrow=none;endFill=0;" edge="1" parent="1" source="1hWyd5EYFZqdeXtgi5e1-1" target="bRvGc7w4acEp0rGxmsy1-44">
          <mxGeometry relative="1" as="geometry">
            <mxPoint x="-300" y="121.18000000000006" as="sourcePoint" />
            <mxPoint x="-315" y="175" as="targetPoint" />
          </mxGeometry>
        </mxCell>
        <mxCell id="bRvGc7w4acEp0rGxmsy1-46" value="1" style="text;html=1;align=center;verticalAlign=middle;resizable=0;points=[];autosize=1;strokeColor=none;" vertex="1" parent="1">
          <mxGeometry x="-375" y="220" width="20" height="20" as="geometry" />
        </mxCell>
        <mxCell id="bRvGc7w4acEp0rGxmsy1-47" value="" style="edgeStyle=none;rounded=0;orthogonalLoop=1;jettySize=auto;html=1;exitX=0.5;exitY=0;exitDx=0;exitDy=0;entryX=0;entryY=1;entryDx=0;entryDy=0;endArrow=none;endFill=0;" edge="1" parent="1" source="bRvGc7w4acEp0rGxmsy1-36" target="bRvGc7w4acEp0rGxmsy1-46">
          <mxGeometry relative="1" as="geometry">
            <mxPoint x="-375" y="250" as="sourcePoint" />
            <mxPoint x="-345" y="205" as="targetPoint" />
          </mxGeometry>
        </mxCell>
      </root>
    </mxGraphModel>
  </diagram>
</mxfile>
